<svg width="210" height="101" viewBox="0 0 210 101" fill="none" xmlns="http://www.w3.org/2000/svg">
<path d="M24 0H51V101H24V0Z" fill="#F7F7F7"/>
<path d="M159 0H186V101H159V0Z" fill="#F7F7F7"/>
<path d="M195 18H210V83H195V18Z" fill="#F7F7F7"/>
<path d="M0 18H15V83H0V18Z" fill="#F7F7F7"/>
<path d="M70.4809 51.8047H60.5316V62H54.3617V36.4062H71.4828V41.1699H60.5316V47.0586H70.4809V51.8047Z" fill="#F7F7F7"/>
<path d="M77.3258 62H71.3844V42.9805H77.3258V62ZM71.0328 38.0762C71.0328 37.2324 71.3375 36.541 71.9469 36.002C72.5562 35.4629 73.3473 35.1934 74.3199 35.1934C75.2926 35.1934 76.0836 35.4629 76.693 36.002C77.3023 36.541 77.607 37.2324 77.607 38.0762C77.607 38.9199 77.3023 39.6113 76.693 40.1504C76.0836 40.6895 75.2926 40.959 74.3199 40.959C73.3473 40.959 72.5562 40.6895 71.9469 40.1504C71.3375 39.6113 71.0328 38.9199 71.0328 38.0762Z" fill="#F7F7F7"/>
<path d="M85.1902 38.252V42.9805H88.3191V47.0938H85.1902V55.7949C85.1902 56.5098 85.3191 57.0078 85.577 57.2891C85.8348 57.5703 86.3445 57.7109 87.1062 57.7109C87.6922 57.7109 88.1844 57.6758 88.5828 57.6055V61.8418C87.5164 62.1816 86.4031 62.3516 85.243 62.3516C83.2039 62.3516 81.698 61.8711 80.7254 60.9102C79.7527 59.9492 79.2664 58.4902 79.2664 56.5332V47.0938H76.8406V42.9805H79.2664V38.252H85.1902Z" fill="#F7F7F7"/>
<path d="M88.2383 62V36.4062H97.4316C100.725 36.4062 103.227 37.0098 104.938 38.2168C106.66 39.4238 107.521 41.1758 107.521 43.4727C107.521 44.7969 107.217 45.9277 106.607 46.8652C105.998 47.8027 105.102 48.4941 103.918 48.9395C105.254 49.291 106.279 49.9473 106.994 50.9082C107.709 51.8691 108.066 53.041 108.066 54.4238C108.066 56.9316 107.27 58.8184 105.676 60.084C104.094 61.3379 101.744 61.9766 98.627 62H88.2383ZM94.4082 51.1191V57.2539H98.4512C99.5645 57.2539 100.42 57.002 101.018 56.498C101.615 55.9824 101.914 55.2617 101.914 54.3359C101.914 52.2031 100.854 51.1309 98.7324 51.1191H94.4082ZM94.4082 47.0762H97.625C98.9727 47.0645 99.9336 46.8184 100.508 46.3379C101.082 45.8574 101.369 45.1484 101.369 44.2109C101.369 43.1328 101.059 42.3594 100.438 41.8906C99.8164 41.4102 98.8145 41.1699 97.4316 41.1699H94.4082V47.0762Z" fill="#F7F7F7"/>
<path d="M107.757 52.3145C107.757 50.416 108.126 48.7285 108.864 47.252C109.603 45.7637 110.663 44.6211 112.046 43.8242C113.429 43.0273 115.052 42.6289 116.915 42.6289C119.763 42.6289 122.007 43.5137 123.648 45.2832C125.288 47.041 126.109 49.4375 126.109 52.4727V52.6836C126.109 55.6484 125.282 58.0039 123.63 59.75C121.989 61.4844 119.763 62.3516 116.95 62.3516C114.243 62.3516 112.07 61.543 110.429 59.9258C108.788 58.2969 107.904 56.0938 107.775 53.3164L107.757 52.3145ZM113.681 52.6836C113.681 54.4414 113.956 55.7305 114.507 56.5508C115.058 57.3711 115.872 57.7812 116.95 57.7812C119.06 57.7812 120.138 56.1582 120.185 52.9121V52.3145C120.185 48.9043 119.095 47.1992 116.915 47.1992C114.935 47.1992 113.862 48.6699 113.698 51.6113L113.681 52.6836Z" fill="#F7F7F7"/>
<path d="M133.34 53.7031L136.504 42.9805H142.85L135.098 65.1816L134.764 65.9902C133.662 68.4512 131.717 69.6816 128.928 69.6816C128.155 69.6816 127.34 69.5645 126.485 69.3301V65.0938H127.258C128.09 65.0938 128.723 64.9707 129.157 64.7246C129.602 64.4902 129.93 64.0625 130.141 63.4414L130.616 62.1758L124.006 42.9805H130.334L133.34 53.7031Z" fill="#F7F7F7"/>
<path d="M148.693 57.4297H157.359V62H141.205V58.6953L149.642 47.5508H141.574V42.9805H157.166V46.1797L148.693 57.4297Z" fill="#F7F7F7"/>
</svg>
